<svg width="151" height="48" fill="none" xmlns="http://www.w3.org/2000/svg"><path fill-rule="evenodd" clip-rule="evenodd" d="M4.657 35.326c-6.21-6.23-6.21-16.423 0-22.653 6.208-6.23 16.37-6.23 22.578 0L38.521 24 27.235 35.326c-6.208 6.23-16.37 6.23-22.578 0z" fill="#FF304C"/><path fill-rule="evenodd" clip-rule="evenodd" d="M66.74 7.01c-9.313-9.346-24.555-9.346-33.868 0l-16.93 16.992 16.93 16.989c9.313 9.345 24.555 9.345 33.868 0 9.313-9.345 9.313-24.636 0-33.982zM55.45 29.664v.004c-3.104 3.111-8.185 3.111-11.29 0l-5.644-5.664 5.644-5.665c3.105-3.115 8.186-3.115 11.29 0 3.104 3.116 3.104 8.214 0 11.325z" fill="#12ABDB"/><path fill-rule="evenodd" clip-rule="evenodd" d="M27.235 35.325L15.945 24l11.29-11.328L38.52 24 27.234 35.325z" fill="#0070AD"/><path fill-rule="evenodd" clip-rule="evenodd" d="M91.145 16.943c0 3.14-2.556 5.645-5.697 5.645-3.157 0-5.698-2.506-5.698-5.645 0-3.14 2.541-5.646 5.698-5.646 3.14 0 5.697 2.506 5.697 5.646zm-9.363 0c0 2.103 1.631 3.758 3.664 3.758 2.033 0 3.665-1.655 3.665-3.759 0-2.103-1.632-3.758-3.665-3.758-2.033 0-3.664 1.655-3.664 3.758zm14.652-5.412c2.28 0 3.757 1.531 3.757 3.388 0 1.856-1.478 3.387-3.757 3.387h-1.601v3.976l-.077.077h-1.632l-.077-.077V11.608l.061-.077h3.326zm-1.602 4.98h1.524c1.093 0 1.802-.619 1.802-1.593 0-.975-.709-1.578-1.802-1.578h-1.524v3.171zm13.784-4.909l-.077-.077h-6.79l-.077.077v10.674l.077.077h7.114l.077-.077V20.62l-.077-.078h-5.405v-3.109h3.772l.078-.077v-1.655l-.078-.078h-3.772v-2.29h5.081l.077-.076v-1.655zm3.884-.077l.154.077 5.928 7.766v-7.765l.077-.078h1.648l.077.077v10.674l-.077.077h-1.725l-.154-.077-5.928-7.765v7.765l-.077.077h-1.632l-.077-.077V11.602l.077-.077h1.709zM85.443 27.307c1.37 0 2.618.48 3.619 1.33l.077-.078v-2.041c-1-.727-2.233-1.098-3.696-1.098-3.156 0-5.697 2.552-5.697 5.645 0 3.094 2.54 5.646 5.697 5.646 1.463 0 2.695-.371 3.696-1.098v-2.041l-.077-.078a5.525 5.525 0 01-3.619 1.33c-2.032 0-3.664-1.67-3.664-3.759 0-2.088 1.632-3.758 3.664-3.758zm10.815-1.657l.078.078 4.203 10.673-.077.077h-1.894l-.077-.077-.893-2.351h-4.389l-.908 2.35-.077.078H90.33l-.077-.077 4.22-10.674.076-.077h1.71zm-2.403 6.607h3.095l-1.555-4.177-1.54 4.177zm10.582-4.95c.523 0 .893.279 1.309.789h.153l1.371-1.02c-.677-1.021-1.571-1.656-2.833-1.656-1.648 0-2.941 1.238-2.941 2.877 0 1.655 1.395 2.365 2.654 3.005 1.036.527 1.98 1.008 1.98 1.93 0 .959-.631 1.593-1.539 1.593-.785 0-1.386-.434-1.817-1.454h-.154l-1.417 1.036c.539 1.454 1.817 2.305 3.388 2.305 2.002 0 3.541-1.578 3.541-3.48 0-2.18-1.739-3.007-3.087-3.648-.852-.405-1.548-.736-1.548-1.287 0-.588.354-.99.94-.99zm14.242 1.33a5.522 5.522 0 00-3.618-1.33c-2.033 0-3.665 1.67-3.665 3.759 0 2.088 1.632 3.759 3.665 3.759 1.37 0 2.617-.48 3.618-1.33l.077.077v2.041c-1.001.727-2.232 1.099-3.695 1.099-3.157 0-5.698-2.553-5.698-5.646 0-3.094 2.541-5.646 5.698-5.646 1.463 0 2.694.371 3.695 1.098v2.042l-.077.077zm7.27-2.91l-.077-.077h-1.709l-.077.078-4.219 10.673.077.077h1.894l.077-.077.908-2.351h4.389l.893 2.35.077.078h1.894l.077-.077-4.204-10.674zm.618 6.53h-3.095l1.54-4.177 1.555 4.177zm8.581-6.607c3.311 0 5.697 2.413 5.697 5.414 0 3-2.386 5.414-5.697 5.414h-3.618l-.077-.077V25.727l.077-.077h3.618zm-1.911 9.02h1.909c2.171 0 3.696-1.532 3.696-3.605s-1.525-3.604-3.696-3.604h-1.909v7.208zm16.44-8.943l-.076-.077h-6.791l-.077.078V36.4l.077.077h7.114l.077-.077v-1.655l-.077-.078h-5.405V31.56h3.773l.077-.077v-1.655l-.077-.077h-3.773v-2.29h5.082l.076-.077v-1.655z" fill="#fff"/></svg>