<svg width="25" height="16" fill="none" xmlns="http://www.w3.org/2000/svg"><path fill-rule="evenodd" clip-rule="evenodd" d="M1.563 11.776c-2.082-2.082-2.082-5.481 0-7.55a5.362 5.362 0 017.565 0l3.77 3.78-3.77 3.77c-2.082 2.081-5.495 2.081-7.565 0z" fill="#29AAE1"/><path fill-rule="evenodd" clip-rule="evenodd" d="M22.36 2.341c-3.117-3.116-8.23-3.116-11.347 0L5.346 8.007l5.667 5.666c3.117 3.116 8.23 3.116 11.347 0 3.116-3.116 3.116-8.216 0-11.332zm-3.783 7.55a2.692 2.692 0 01-3.782 0l-1.897-1.884 1.885-1.885a2.692 2.692 0 013.782 0 2.665 2.665 0 01.012 3.77z" fill="#2CA155"/><path fill-rule="evenodd" clip-rule="evenodd" d="M9.128 11.777l-3.782-3.77 3.782-3.78 3.77 3.78-3.77 3.77z" fill="#097834"/></svg>