<svg width="25" height="16" fill="none" xmlns="http://www.w3.org/2000/svg"><path fill-rule="evenodd" clip-rule="evenodd" d="M1.56 11.776c-2.077-2.082-2.077-5.481 0-7.55a5.34 5.34 0 017.546 0l3.76 3.78-3.76 3.77c-2.077 2.081-5.482 2.081-7.546 0z" fill="#29AAE1"/><path fill-rule="evenodd" clip-rule="evenodd" d="M22.306 2.341c-3.11-3.116-8.21-3.116-11.319 0L5.334 8.007l5.653 5.666c3.11 3.116 8.21 3.116 11.32 0 3.109-3.116 3.109-8.216 0-11.332zm-3.773 7.55a2.681 2.681 0 01-3.773 0l-1.892-1.884 1.88-1.885a2.681 2.681 0 013.773 0 2.67 2.67 0 01.012 3.77z" fill="#F7CB3C"/><path fill-rule="evenodd" clip-rule="evenodd" d="M9.107 11.773L5.334 8.004l3.773-3.781 3.76 3.781-3.76 3.77z" fill="#F29121"/></svg>