<svg width="25" height="16" fill="none" xmlns="http://www.w3.org/2000/svg"><path fill-rule="evenodd" clip-rule="evenodd" d="M1.562 11.776c-2.08-2.082-2.08-5.481 0-7.55a5.352 5.352 0 017.556 0l3.766 3.78-3.766 3.77c-2.08 2.081-5.489 2.081-7.556 0z" fill="#29AAE1"/><path fill-rule="evenodd" clip-rule="evenodd" d="M22.335 2.341C19.22-.775 14.115-.775 11 2.341L5.34 8.007 11 13.673c3.114 3.116 8.221 3.116 11.335 0 3.113-3.116 3.113-8.216 0-11.332zm-3.778 7.55a2.687 2.687 0 01-3.778 0l-1.895-1.884 1.883-1.885a2.687 2.687 0 013.777 0 2.667 2.667 0 01.013 3.77z" fill="#E73B3B"/><path fill-rule="evenodd" clip-rule="evenodd" d="M9.118 11.773L5.34 8.004l3.778-3.781 3.766 3.781-3.766 3.77z" fill="#B9182A"/></svg>