<svg width="25" height="16" fill="none" xmlns="http://www.w3.org/2000/svg"><path fill-rule="evenodd" clip-rule="evenodd" d="M1.562 11.776c-2.08-2.082-2.08-5.481 0-7.55a5.356 5.356 0 017.56 0l3.767 3.78-3.767 3.77c-2.081 2.081-5.491 2.081-7.56 0z" fill="#29AAE1"/><path fill-rule="evenodd" clip-rule="evenodd" d="M22.346 2.341c-3.115-3.116-8.224-3.116-11.339 0L5.344 8.007l5.663 5.666c3.115 3.116 8.224 3.116 11.339 0s3.115-8.216 0-11.332zm-3.78 7.55a2.69 2.69 0 01-3.78 0l-1.895-1.884 1.883-1.885a2.69 2.69 0 013.78 0 2.666 2.666 0 01.012 3.77z" fill="#7B6FB0"/><path fill-rule="evenodd" clip-rule="evenodd" d="M9.123 11.773l-3.78-3.769 3.78-3.781 3.768 3.781-3.768 3.77z" fill="#402D86"/></svg>