<svg version="1.1" id="Слой_1" xmlns="http://www.w3.org/2000/svg" x="0" y="0" viewBox="0 0 32 32" xml:space="preserve"><path d="M21.2 27.3l-2.6 4.5c-.9.1-1.7.2-2.6.2-.8 0-1.7-.1-2.5-.2l-3-5.6L8 20.6l.6-7.1s5.2-7.6 6.3-8.1 9.1 0 9.1 0L26.5 7l-.9 7-.9 10.2-3.5 3.1z" fill="#fff"/><path d="M32 16c0-8.8-7.2-16-16-16S0 7.2 0 16c0 8 5.8 14.6 13.5 15.8V20.6H9.4V16h4.1v-3.5c0-4 2.4-6.2 6.1-6.2 1.8 0 3.6.3 3.6.3v4h-2c-2 0-2.6 1.2-2.6 2.5v3H23l-.7 4.6h-3.7v11.2C26.2 30.6 32 24 32 16z" fill="#092a42"/></svg>