<svg width="25" height="16" fill="none" xmlns="http://www.w3.org/2000/svg"><path fill-rule="evenodd" clip-rule="evenodd" d="M1.568 11.776c-2.088-2.082-2.088-5.481 0-7.55 2.089-2.082 5.5-2.082 7.588 0l3.782 3.78-3.782 3.77c-2.088 2.081-5.512 2.081-7.588 0z" fill="#29AAE1"/><path fill-rule="evenodd" clip-rule="evenodd" d="M22.43 2.341c-3.127-3.116-8.255-3.116-11.382 0L5.363 8.007l5.685 5.666c3.127 3.116 8.255 3.116 11.382 0 3.126-3.116 3.126-8.216 0-11.332zm-3.794 7.55a2.707 2.707 0 01-3.794 0l-1.903-1.884 1.89-1.885a2.707 2.707 0 013.794 0 2.659 2.659 0 01.013 3.77z" fill="#CA2380"/><path fill-rule="evenodd" clip-rule="evenodd" d="M9.157 11.773L5.363 8.004l3.794-3.781 3.782 3.781-3.782 3.77z" fill="#851D66"/></svg>