<svg width="25" height="16" fill="none" xmlns="http://www.w3.org/2000/svg"><path fill-rule="evenodd" clip-rule="evenodd" d="M1.563 11.776c-2.081-2.082-2.081-5.481 0-7.55a5.357 5.357 0 017.56 0l3.768 3.78-3.768 3.77c-2.08 2.081-5.492 2.081-7.56 0z" fill="#29AAE1"/><path fill-rule="evenodd" clip-rule="evenodd" d="M22.348 2.341c-3.115-3.116-8.225-3.116-11.34 0L5.344 8.007l5.664 5.666c3.115 3.116 8.225 3.116 11.34 0 3.116-3.116 3.116-8.216 0-11.332zm-3.78 7.55a2.69 2.69 0 01-3.78 0l-1.896-1.884 1.884-1.885a2.69 2.69 0 013.78 0 2.666 2.666 0 01.012 3.77z" fill="#78C4B5"/><path fill-rule="evenodd" clip-rule="evenodd" d="M9.124 11.773l-3.78-3.769 3.78-3.781 3.768 3.781-3.768 3.77z" fill="#00987A"/></svg>