<svg width="25" height="17" fill="none" xmlns="http://www.w3.org/2000/svg"><path d="M9.096 11.355L5.754 8.013 9.25 4.495l.155-.155 3.674 3.673-3.674 3.652-.31-.31z" fill="#fff"/><path d="M1.593 11.838A5.402 5.402 0 01.42 10.089 5.63 5.63 0 010 8.01c0-.708.133-1.416.42-2.08a5.402 5.402 0 011.173-1.75 5.355 5.355 0 013.829-1.572c1.328 0 2.633.465 3.673 1.417l-3.96 3.983 3.96 3.983a5.397 5.397 0 01-3.673 1.417 5.41 5.41 0 01-3.829-1.571zm7.812-.177l-.155.177-.155.155.31-.332z" fill="#fff"/><path d="M18.502 9.936l-.067.067a2.815 2.815 0 01-1.991.819c-.73 0-1.439-.266-1.992-.82l-1.992-1.99 1.992-1.993a2.815 2.815 0 011.992-.818c.73 0 1.438.265 1.991.818.553.554.819 1.262.819 1.992 0 .686-.243 1.372-.752 1.925zm-2.058.42c.575 0 1.172-.22 1.615-.64l.066-.067a2.328 2.328 0 00.686-1.66c0-.598-.22-1.217-.686-1.66a2.341 2.341 0 00-1.681-.686c-.598 0-1.218.221-1.682.686L13.08 8.011l1.682 1.682a2.414 2.414 0 001.681.664zM9.405 4.338l-.332-.31 1.682-1.681A8.196 8.196 0 0113.323.62 8.096 8.096 0 0116.377 0h.089c1.04 0 2.08.221 3.054.62.929.398 1.814.951 2.567 1.726 1.549 1.549 2.323 3.607 2.323 5.665a8.026 8.026 0 01-2.323 5.665 8.011 8.011 0 01-5.666 2.346c-2.058 0-4.116-.774-5.665-2.346l-1.682-1.681.332-.31 1.682 1.681a7.574 7.574 0 005.356 2.213 7.52 7.52 0 005.355-2.213 7.539 7.539 0 002.19-5.333 7.54 7.54 0 00-2.19-5.333 7.455 7.455 0 00-2.412-1.616A7.584 7.584 0 0016.51.51h-.133c-.974 0-1.947.2-2.877.575A7.574 7.574 0 0011.088 2.7c0-.044-1.682 1.637-1.682 1.637z" fill="#fff"/></svg>