<?xml version="1.0" encoding="utf-8"?>
<!-- Generator: Adobe Illustrator 24.1.0, SVG Export Plug-In . SVG Version: 6.00 Build 0)  -->
<svg version="1.1" id="Слой_1" xmlns="http://www.w3.org/2000/svg" xmlns:xlink="http://www.w3.org/1999/xlink" x="0px" y="0px"
	 viewBox="0 0 32 32" style="enable-background:new 0 0 32 32;" xml:space="preserve">
<style type="text/css">
	.st0{fill:#FFFFFF;}
	.st1{fill:#02111d;}
</style>
<g>
	<path class="st0" d="M21.2,27.3l-2.6,4.5C17.7,31.9,16.9,32,16,32c-0.8,0-1.7-0.1-2.5-0.2l-3-5.6L8,20.6l0.6-7.1
		c0,0,5.2-7.6,6.3-8.1S24,5.4,24,5.4L26.5,7l-0.9,7l-0.9,10.2L21.2,27.3z"/>
	<path class="st1" d="M32,16c0-8.8-7.2-16-16-16C7.2,0,0,7.2,0,16c0,8,5.8,14.6,13.5,15.8V20.6H9.4V16h4.1v-3.5c0-4,2.4-6.2,6.1-6.2
		c1.8,0,3.6,0.3,3.6,0.3v4h-2c-2,0-2.6,1.2-2.6,2.5v3H23l-0.7,4.6h-3.7v11.2C26.2,30.6,32,24,32,16z"/>
</g>
</svg>
