<svg width="32" height="32" fill="none" xmlns="http://www.w3.org/2000/svg"><circle cx="15.812" cy="16.189" r="14.306" fill="#fff"/><path fill-rule="evenodd" clip-rule="evenodd" d="M0 16c0 8.847 7.153 16 16 16 8.847 0 16-7.153 16-16 0-8.847-7.153-16-16-16C7.153 0 0 7.153 0 16zm24.02-6.776a2.511 2.511 0 011.806 1.807c.452 1.619.414 4.97.414 4.97s0 3.35-.414 4.969a2.575 2.575 0 01-1.807 1.807C22.4 23.19 16 23.19 16 23.19s-6.437 0-8.019-.414a2.511 2.511 0 01-1.807-1.807C5.76 19.35 5.76 16 5.76 16s0-3.35.414-4.97a2.575 2.575 0 011.807-1.806c1.62-.414 8.02-.414 8.02-.414s6.437 0 8.018.414zM19.237 16l-5.346-3.05v6.1L19.238 16z" fill="#092A42"/></svg>