<svg width="32" height="32" fill="none" xmlns="http://www.w3.org/2000/svg"><path d="M16 0C7.149 0 0 7.149 0 16c0 8.813 7.149 16 16 16 8.813 0 16-7.149 16-16-.038-8.851-7.187-16-16-16z" fill="#02111D"/><path d="M22.873 13.131v-.416a7.703 7.703 0 001.627-1.702 6.387 6.387 0 01-1.891.53c.68-.416 1.21-1.06 1.437-1.816a6.593 6.593 0 01-2.08.794C21.36 9.916 20.528 9.5 19.583 9.5a3.293 3.293 0 00-3.291 3.29c0 .266.038.53.076.757-2.724-.151-5.145-1.475-6.771-3.442a3.142 3.142 0 00-.454 1.665c0 1.134.605 2.118 1.475 2.723a3.902 3.902 0 01-1.475-.416v.038a3.285 3.285 0 002.648 3.215 3.226 3.226 0 01-.87.113 3.37 3.37 0 01-.605-.075 3.31 3.31 0 003.063 2.27 6.666 6.666 0 01-4.085 1.399c-.264 0-.53 0-.794-.038 1.437.945 3.177 1.475 5.03 1.475 6.053 0 9.344-4.993 9.344-9.343z" fill="#fff"/></svg>