<svg width="32" height="32" fill="none" xmlns="http://www.w3.org/2000/svg"><path d="M16 0C7.153 0 0 7.153 0 16c0 8.847 7.153 16 16 16 8.847 0 16-7.153 16-16 0-8.847-7.153-16-16-16z" fill="#092A42"/><path d="M8.226 23.393h3.652V11.798H8.226v11.595zM8 8.108c0 1.167.904 2.108 2.07 2.108 1.13 0 2.071-.94 2.071-2.108C12.141 6.941 11.2 6 10.071 6 8.94 6 8 6.941 8 8.108zm13.741 15.285h3.652v-7.115c0-3.426-1.694-4.48-3.539-4.744-1.619-.226-3.313.377-4.254 1.845v-1.581h-3.464v11.595h3.615v-5.91c0-1.808.564-2.711 1.882-2.824 1.544-.113 2.108.866 2.108 2.823v5.91z" fill="#fff"/></svg>