<svg width="1920" height="410" fill="none" xmlns="http://www.w3.org/2000/svg"><mask id="mask0" maskUnits="userSpaceOnUse" x="0" y="0" width="1920" height="410"><path fill="#2177B0" d="M0 0h1920v410H0z"/></mask><g mask="url(#mask0)" fill="#EEF9FF"><path opacity=".03" d="M2167.14 101.95C1649.31 747.102 759.26 52.11-125.567-8.454-355.629-23.943-586.481 5.644-805 107.312V648h3058V-16c-25.46 38.92-53.92 78.236-85.86 117.95z"/><path opacity=".1" d="M1939.1 215.179c-385.42 422.144-1047.857-32.613-1706.414-72.242-171.23-10.134-343.047 9.225-505.686 75.75V602h2276V138c-18.95 25.466-40.13 51.193-63.9 77.179z"/></g><path d="M1866.09 296.015c-325.13 268.1-883.951-20.712-1439.501-45.879C282.143 243.699 137.2 255.994 0 298.243V410h1920V247c-15.98 16.173-33.85 32.512-53.91 49.015z" fill="#EEF9FF"/></svg>